<mxfile host="65bd71144e">
    <diagram id="OSn3tNcZtsXED_PgNxEc" name="Page-1">
        <mxGraphModel dx="832" dy="485" grid="1" gridSize="10" guides="1" tooltips="1" connect="1" arrows="1" fold="1" page="1" pageScale="1" pageWidth="850" pageHeight="1100" math="0" shadow="0">
            <root>
                <mxCell id="0"/>
                <mxCell id="1" parent="0"/>
                <mxCell id="4" style="edgeStyle=none;html=1;exitX=0.5;exitY=1;exitDx=0;exitDy=0;entryX=0.5;entryY=0;entryDx=0;entryDy=0;fontSize=10;fontFamily=Helvetica;rounded=0;" parent="1" source="2" target="3" edge="1">
                    <mxGeometry relative="1" as="geometry"/>
                </mxCell>
                <mxCell id="2" value="Start" style="rounded=1;whiteSpace=wrap;html=1;arcSize=50;fontFamily=Helvetica;strokeWidth=1;fontSize=10;" parent="1" vertex="1">
                    <mxGeometry x="360" y="40" width="120" height="40" as="geometry"/>
                </mxCell>
                <mxCell id="6" style="edgeStyle=none;html=1;exitX=0.5;exitY=1;exitDx=0;exitDy=0;entryX=0.5;entryY=0;entryDx=0;entryDy=0;fontSize=10;fontFamily=Helvetica;rounded=0;" parent="1" source="3" target="5" edge="1">
                    <mxGeometry relative="1" as="geometry"/>
                </mxCell>
                <mxCell id="3" value="requestCookies&lt;br style=&quot;font-size: 10px;&quot;&gt;&lt;br style=&quot;font-size: 10px;&quot;&gt;requestPath" style="shape=hexagon;perimeter=hexagonPerimeter2;whiteSpace=wrap;html=1;fixedSize=1;fontFamily=Helvetica;strokeWidth=1;fontSize=10;rounded=0;" parent="1" vertex="1">
                    <mxGeometry x="360" y="120" width="120" height="80" as="geometry"/>
                </mxCell>
                <mxCell id="8" style="edgeStyle=none;html=1;exitX=0.5;exitY=1;exitDx=0;exitDy=0;entryX=0.5;entryY=0;entryDx=0;entryDy=0;entryPerimeter=0;fontSize=10;fontFamily=Helvetica;rounded=0;" parent="1" source="5" target="7" edge="1">
                    <mxGeometry relative="1" as="geometry"/>
                </mxCell>
                <mxCell id="5" value="Validate the studentToken from the requestCookies" style="rounded=0;whiteSpace=wrap;html=1;fontFamily=Helvetica;strokeWidth=1;fontSize=10;" parent="1" vertex="1">
                    <mxGeometry x="360" y="240" width="120" height="40" as="geometry"/>
                </mxCell>
                <mxCell id="10" style="edgeStyle=none;html=1;exitX=0.5;exitY=1;exitDx=0;exitDy=0;exitPerimeter=0;entryX=0.5;entryY=0;entryDx=0;entryDy=0;fontSize=10;fontFamily=Helvetica;rounded=0;" parent="1" source="7" target="9" edge="1">
                    <mxGeometry relative="1" as="geometry"/>
                </mxCell>
                <mxCell id="7" value="Students" style="shape=cylinder3;whiteSpace=wrap;html=1;boundedLbl=1;backgroundOutline=1;size=15;fontSize=10;fontFamily=Helvetica;rounded=0;" parent="1" vertex="1">
                    <mxGeometry x="360" y="320" width="120" height="80" as="geometry"/>
                </mxCell>
                <mxCell id="12" style="edgeStyle=none;html=1;exitX=0.5;exitY=1;exitDx=0;exitDy=0;entryX=0.5;entryY=0;entryDx=0;entryDy=0;fontSize=10;fontFamily=Helvetica;rounded=0;" parent="1" source="9" target="11" edge="1">
                    <mxGeometry relative="1" as="geometry"/>
                </mxCell>
                <mxCell id="13" value="Yes" style="edgeLabel;html=1;align=center;verticalAlign=middle;resizable=0;points=[];fontSize=10;fontFamily=Helvetica;rounded=0;" parent="12" vertex="1" connectable="0">
                    <mxGeometry x="-0.7667" y="1" relative="1" as="geometry">
                        <mxPoint x="-1" y="11" as="offset"/>
                    </mxGeometry>
                </mxCell>
                <mxCell id="38" style="edgeStyle=none;html=1;exitX=0;exitY=0.5;exitDx=0;exitDy=0;fontSize=10;fontFamily=Helvetica;rounded=0;" parent="1" source="9" edge="1">
                    <mxGeometry relative="1" as="geometry">
                        <mxPoint x="220" y="820" as="targetPoint"/>
                        <Array as="points">
                            <mxPoint x="120" y="480"/>
                            <mxPoint x="120" y="820"/>
                        </Array>
                    </mxGeometry>
                </mxCell>
                <mxCell id="39" value="No" style="edgeLabel;html=1;align=center;verticalAlign=middle;resizable=0;points=[];fontSize=10;fontFamily=Helvetica;rounded=0;" parent="38" vertex="1" connectable="0">
                    <mxGeometry x="-0.9276" y="-2" relative="1" as="geometry">
                        <mxPoint x="4" y="2" as="offset"/>
                    </mxGeometry>
                </mxCell>
                <mxCell id="9" value="Is the studentToken&lt;br&gt;authorized?" style="rhombus;whiteSpace=wrap;html=1;fontFamily=Helvetica;strokeWidth=1;fontSize=10;rounded=0;" parent="1" vertex="1">
                    <mxGeometry x="360" y="440" width="120" height="80" as="geometry"/>
                </mxCell>
                <mxCell id="16" style="edgeStyle=none;html=1;exitX=0.5;exitY=1;exitDx=0;exitDy=0;entryX=0.5;entryY=0;entryDx=0;entryDy=0;fontSize=10;fontFamily=Helvetica;rounded=0;" parent="1" source="11" target="14" edge="1">
                    <mxGeometry relative="1" as="geometry">
                        <Array as="points">
                            <mxPoint x="420" y="660"/>
                            <mxPoint x="220" y="660"/>
                        </Array>
                    </mxGeometry>
                </mxCell>
                <mxCell id="11" value="Check requestPath" style="rounded=0;whiteSpace=wrap;html=1;fontFamily=Helvetica;strokeWidth=1;fontSize=10;" parent="1" vertex="1">
                    <mxGeometry x="360" y="600" width="120" height="40" as="geometry"/>
                </mxCell>
                <mxCell id="17" style="edgeStyle=none;html=1;exitX=1;exitY=0.5;exitDx=0;exitDy=0;entryX=0;entryY=0.5;entryDx=0;entryDy=0;fontSize=10;fontFamily=Helvetica;rounded=0;" parent="1" source="14" target="15" edge="1">
                    <mxGeometry relative="1" as="geometry"/>
                </mxCell>
                <mxCell id="18" value="No" style="edgeLabel;html=1;align=center;verticalAlign=middle;resizable=0;points=[];fontSize=10;fontFamily=Helvetica;rounded=0;" parent="17" vertex="1" connectable="0">
                    <mxGeometry x="-0.4321" relative="1" as="geometry">
                        <mxPoint x="-3" as="offset"/>
                    </mxGeometry>
                </mxCell>
                <mxCell id="23" style="edgeStyle=none;html=1;exitX=0.5;exitY=1;exitDx=0;exitDy=0;entryX=0.5;entryY=0;entryDx=0;entryDy=0;fontSize=10;fontFamily=Helvetica;rounded=0;" parent="1" source="14" target="34" edge="1">
                    <mxGeometry relative="1" as="geometry">
                        <mxPoint x="220" y="840" as="targetPoint"/>
                    </mxGeometry>
                </mxCell>
                <mxCell id="26" value="Yes" style="edgeLabel;html=1;align=center;verticalAlign=middle;resizable=0;points=[];fontSize=10;fontFamily=Helvetica;rounded=0;" parent="23" vertex="1" connectable="0">
                    <mxGeometry x="-0.7458" y="-1" relative="1" as="geometry">
                        <mxPoint x="1" y="10" as="offset"/>
                    </mxGeometry>
                </mxCell>
                <mxCell id="14" value="/login/" style="rhombus;whiteSpace=wrap;html=1;fontFamily=Helvetica;strokeWidth=1;fontSize=10;rounded=0;" parent="1" vertex="1">
                    <mxGeometry x="160" y="680" width="120" height="80" as="geometry"/>
                </mxCell>
                <mxCell id="20" style="edgeStyle=none;html=1;exitX=1;exitY=0.5;exitDx=0;exitDy=0;entryX=0;entryY=0.5;entryDx=0;entryDy=0;fontSize=10;fontFamily=Helvetica;rounded=0;" parent="1" source="15" target="485" edge="1">
                    <mxGeometry relative="1" as="geometry">
                        <mxPoint x="560" y="719.9999999999998" as="targetPoint"/>
                    </mxGeometry>
                </mxCell>
                <mxCell id="21" value="No" style="edgeLabel;html=1;align=center;verticalAlign=middle;resizable=0;points=[];fontSize=10;fontFamily=Helvetica;rounded=0;" parent="20" vertex="1" connectable="0">
                    <mxGeometry x="-0.6593" y="3" relative="1" as="geometry">
                        <mxPoint x="5" y="3" as="offset"/>
                    </mxGeometry>
                </mxCell>
                <mxCell id="25" style="edgeStyle=none;html=1;exitX=0.5;exitY=1;exitDx=0;exitDy=0;entryX=0.5;entryY=0;entryDx=0;entryDy=0;fontSize=10;fontFamily=Helvetica;rounded=0;" parent="1" source="15" target="471" edge="1">
                    <mxGeometry relative="1" as="geometry">
                        <mxPoint x="420" y="840" as="targetPoint"/>
                        <Array as="points">
                            <mxPoint x="420" y="940"/>
                            <mxPoint x="220" y="940"/>
                        </Array>
                    </mxGeometry>
                </mxCell>
                <mxCell id="27" value="Yes" style="edgeLabel;html=1;align=center;verticalAlign=middle;resizable=0;points=[];fontSize=10;fontFamily=Helvetica;rounded=0;" parent="25" vertex="1" connectable="0">
                    <mxGeometry x="-0.6208" y="1" relative="1" as="geometry">
                        <mxPoint x="-1" y="-56" as="offset"/>
                    </mxGeometry>
                </mxCell>
                <mxCell id="15" value="/dashboard/" style="rhombus;whiteSpace=wrap;html=1;fontFamily=Helvetica;strokeWidth=1;fontSize=10;rounded=0;" parent="1" vertex="1">
                    <mxGeometry x="360" y="680" width="120" height="80" as="geometry"/>
                </mxCell>
                <mxCell id="34" value="Login&amp;nbsp; Page" style="shape=offPageConnector;whiteSpace=wrap;html=1;size=0.25;fontSize=10;fontFamily=Helvetica;rounded=0;" parent="1" vertex="1">
                    <mxGeometry x="180" y="840" width="80" height="80" as="geometry"/>
                </mxCell>
                <mxCell id="467" value="Dashboard Page" style="shape=offPageConnector;whiteSpace=wrap;html=1;size=0.25;fontSize=10;fontFamily=Helvetica;rounded=0;" parent="1" vertex="1">
                    <mxGeometry x="580" y="960" width="80" height="80" as="geometry"/>
                </mxCell>
                <mxCell id="475" style="edgeStyle=none;rounded=1;html=1;exitX=1;exitY=0.5;exitDx=0;exitDy=0;entryX=0;entryY=0.5;entryDx=0;entryDy=0;fontFamily=Helvetica;fontSize=10;" parent="1" source="468" target="467" edge="1">
                    <mxGeometry relative="1" as="geometry">
                        <mxPoint x="559.9999999999998" y="1000" as="targetPoint"/>
                    </mxGeometry>
                </mxCell>
                <mxCell id="476" value="No" style="edgeLabel;html=1;align=center;verticalAlign=middle;resizable=0;points=[];fontSize=10;fontFamily=Helvetica;" parent="475" vertex="1" connectable="0">
                    <mxGeometry x="-0.325" y="-1" relative="1" as="geometry">
                        <mxPoint x="-14" y="-1" as="offset"/>
                    </mxGeometry>
                </mxCell>
                <mxCell id="482" style="edgeStyle=none;rounded=1;html=1;exitX=0.5;exitY=1;exitDx=0;exitDy=0;entryX=0.5;entryY=0;entryDx=0;entryDy=0;fontFamily=Helvetica;fontSize=10;" parent="1" source="468" target="479" edge="1">
                    <mxGeometry relative="1" as="geometry"/>
                </mxCell>
                <mxCell id="484" value="Yes" style="edgeLabel;html=1;align=center;verticalAlign=middle;resizable=0;points=[];fontSize=10;fontFamily=Helvetica;" parent="482" vertex="1" connectable="0">
                    <mxGeometry x="-0.7239" y="1" relative="1" as="geometry">
                        <mxPoint x="-1" y="9" as="offset"/>
                    </mxGeometry>
                </mxCell>
                <mxCell id="468" value="/dashboard&lt;br&gt;/evaluationsOfYou/" style="rhombus;whiteSpace=wrap;html=1;fontFamily=Helvetica;strokeWidth=1;fontSize=10;rounded=0;" parent="1" vertex="1">
                    <mxGeometry x="360" y="960" width="120" height="80" as="geometry"/>
                </mxCell>
                <mxCell id="473" style="edgeStyle=none;rounded=1;html=1;exitX=1;exitY=0.5;exitDx=0;exitDy=0;entryX=0;entryY=0.5;entryDx=0;entryDy=0;fontFamily=Helvetica;fontSize=10;" parent="1" source="471" target="468" edge="1">
                    <mxGeometry relative="1" as="geometry"/>
                </mxCell>
                <mxCell id="474" value="No" style="edgeLabel;html=1;align=center;verticalAlign=middle;resizable=0;points=[];fontSize=10;fontFamily=Helvetica;" parent="473" vertex="1" connectable="0">
                    <mxGeometry x="-0.7208" y="1" relative="1" as="geometry">
                        <mxPoint x="9" y="1" as="offset"/>
                    </mxGeometry>
                </mxCell>
                <mxCell id="481" style="edgeStyle=none;rounded=1;html=1;exitX=0.5;exitY=1;exitDx=0;exitDy=0;entryX=0.5;entryY=0;entryDx=0;entryDy=0;fontFamily=Helvetica;fontSize=10;" parent="1" source="471" target="480" edge="1">
                    <mxGeometry relative="1" as="geometry"/>
                </mxCell>
                <mxCell id="483" value="Yes" style="edgeLabel;html=1;align=center;verticalAlign=middle;resizable=0;points=[];fontSize=10;fontFamily=Helvetica;" parent="481" vertex="1" connectable="0">
                    <mxGeometry x="-0.6587" y="1" relative="1" as="geometry">
                        <mxPoint x="-1" y="6" as="offset"/>
                    </mxGeometry>
                </mxCell>
                <mxCell id="471" value="/dashboard&lt;br&gt;/evaluate/" style="rhombus;whiteSpace=wrap;html=1;fontFamily=Helvetica;strokeWidth=1;fontSize=10;rounded=0;" parent="1" vertex="1">
                    <mxGeometry x="160" y="960" width="120" height="80" as="geometry"/>
                </mxCell>
                <mxCell id="479" value="Evaluations Of You Page" style="shape=offPageConnector;whiteSpace=wrap;html=1;strokeWidth=1;fontFamily=Helvetica;fontSize=10;size=0.25;rounded=0;" parent="1" vertex="1">
                    <mxGeometry x="380" y="1120" width="80" height="80" as="geometry"/>
                </mxCell>
                <mxCell id="480" value="Evaluation Page" style="shape=offPageConnector;whiteSpace=wrap;html=1;strokeWidth=1;fontFamily=Helvetica;fontSize=10;size=0.25;rounded=0;" parent="1" vertex="1">
                    <mxGeometry x="180" y="1120" width="80" height="80" as="geometry"/>
                </mxCell>
                <mxCell id="485" value="404 Page" style="shape=offPageConnector;whiteSpace=wrap;html=1;size=0.25;fontSize=10;fontFamily=Helvetica;rounded=0;" parent="1" vertex="1">
                    <mxGeometry x="580" y="680" width="80" height="80" as="geometry"/>
                </mxCell>
                <mxCell id="487" style="edgeStyle=none;rounded=1;html=1;fontFamily=Helvetica;fontSize=10;" parent="1" source="486" edge="1">
                    <mxGeometry relative="1" as="geometry">
                        <mxPoint x="420" y="100" as="targetPoint"/>
                    </mxGeometry>
                </mxCell>
                <mxCell id="486" value="Reroute" style="shape=offPageConnector;whiteSpace=wrap;html=1;strokeWidth=1;fontFamily=Helvetica;fontSize=10;size=0.25;rounded=0;" parent="1" vertex="1">
                    <mxGeometry x="220" y="60" width="80" height="80" as="geometry"/>
                </mxCell>
            </root>
        </mxGraphModel>
    </diagram>
</mxfile>